<svg width="29" height="28" viewBox="0 0 29 28" xmlns="http://www.w3.org/2000/svg"
  xmlns:xlink="http://www.w3.org/1999/xlink">
  <defs>
    <linearGradient x1="50%" y1="0%" x2="50%" y2="86.637%" id="5trmhvew0d">
      <stop stop-color="#E5E8EA" offset="0%" />
      <stop stop-color="#B3BAC0" offset="100%" />
    </linearGradient>
    <linearGradient x1="50%" y1="21.348%" x2="50%" y2="86.706%" id="mzwgad1qzc">
      <stop stop-color="#818C96" stop-opacity="0" offset="0%" />
      <stop stop-color="#818C96" offset="100%" />
    </linearGradient>
    <filter x="-22.2%" y="-18.6%" width="144.4%" height="146.5%" filterUnits="objectBoundingBox" id="xfxw9cwaua">
      <feOffset dy="1" in="SourceAlpha" result="shadowOffsetOuter1" />
      <feGaussianBlur stdDeviation="1.5" in="shadowOffsetOuter1" result="shadowBlurOuter1" />
      <feColorMatrix values="0 0 0 0 0.00784313725 0 0 0 0 0.0784313725 0 0 0 0 0.141176471 0 0 0 0.6 0"
        in="shadowBlurOuter1" />
    </filter>
    <path
      d="M11.218 0c.205 0 .437.025.643.124l7.847 3.627c.386.2.695.522.824.92l1.955 8.123c.02.158.017.315-.007.468l.007.032c.052.423-.051.845-.309 1.193L16.75 20.97a1.3 1.3 0 0 1-1.183.521H6.92a1.903 1.903 0 0 1-1.184-.521L.308 14.487a1.525 1.525 0 0 1-.283-1.193l-.004.024a1.512 1.512 0 0 1 .004-.524l1.93-8.173c.103-.423.386-.745.772-.92L10.574.05c.206-.05.438-.05.644-.05z"
      id="tx2mibmi7b" />
  </defs>
  <g fill="none">
    <path d="M3 1h24v24H3z" />
    <g fill-rule="evenodd">
      <g transform="translate(3.5 2)">
        <use fill="#000" filter="url(#xfxw9cwaua)" xlink:href="#tx2mibmi7b" />
        <use fill="#03192D" xlink:href="#tx2mibmi7b" />
      </g>
      <path
        d="M18.698 12.319c-.023 0-.047 0-.047-.024s-.048-.024-.095-.024c-.095-.024-.19-.024-.284-.024-.048 0-.095 0-.143-.024h-.023a4.766 4.766 0 0 1-.806-.143.287.287 0 0 1-.166-.167c.023 0 0 0 0 0l-.19-.047a6.255 6.255 0 0 0-.095-2.099 6.48 6.48 0 0 0-.83-1.955l.143-.143v-.024c0-.072.023-.167.07-.215.214-.19.427-.334.664-.477l.143-.071c.095-.048.166-.096.26-.143.024-.024.048-.024.072-.048.023-.024 0-.024 0-.048a.468.468 0 0 0 .094-.668.452.452 0 0 0-.331-.166.564.564 0 0 0-.332.119l-.024.024c-.024.023-.047.047-.071.047a1.54 1.54 0 0 0-.19.215c-.024.048-.071.071-.095.095-.166.191-.379.382-.592.525-.048.024-.095.048-.143.048-.023 0-.07 0-.094-.024h-.024l-.19.119c-.19-.19-.403-.382-.593-.572a6.055 6.055 0 0 0-3.082-1.24l-.023-.191v.024c-.071-.048-.095-.12-.119-.191 0-.262 0-.525.048-.81v-.025c0-.047.023-.095.023-.143.024-.095.024-.19.048-.286V3.4a.471.471 0 0 0-.403-.5c-.143-.025-.285.047-.403.166a.472.472 0 0 0-.143.334v.12c0 .095.024.19.048.285.024.048.024.096.024.144v.023c.047.263.047.525.047.811-.024.072-.047.143-.119.19v.049l-.023.19c-.261.024-.522.072-.806.12A5.644 5.644 0 0 0 6.987 7l-.143-.096h-.023c-.024 0-.048.024-.095.024-.048 0-.095-.024-.142-.047a4.381 4.381 0 0 1-.593-.549c-.024-.048-.071-.071-.095-.095-.071-.072-.118-.143-.19-.215C5.683 6 5.66 6 5.636 5.975l-.024-.023a.564.564 0 0 0-.332-.12c-.143 0-.261.048-.332.167a.515.515 0 0 0 .095.668c.023 0 .023.024.023.024s.048.048.071.048c.072.047.166.095.261.143l.142.071c.238.143.475.286.664.477.048.048.095.143.071.215V7.62l.143.143c-.024.048-.048.072-.071.12-.735 1.168-1.044 2.55-.83 3.91l-.19.048c0 .024-.024.024-.024.024-.023.071-.094.119-.166.166a4.38 4.38 0 0 1-.806.144c-.047 0-.094 0-.142.023-.095 0-.19.024-.284.024-.024 0-.048.024-.095.024-.024 0-.024 0-.048.024a.465.465 0 0 0-.379.548.44.44 0 0 0 .474.334c.048 0 .071 0 .119-.024.023 0 .023 0 .023-.023 0-.024.072 0 .095 0 .095-.024.19-.072.261-.096.048-.024.095-.048.142-.048h.024c.26-.095.498-.166.782-.214h.024c.071 0 .142.024.19.071.023 0 .023.024.023.024l.214-.024a5.756 5.756 0 0 0 1.944 2.79c.213.167.403.31.64.43l-.119.167c0 .023.024.023.024.023a.284.284 0 0 1 .024.239 3.92 3.92 0 0 1-.38.691v.024a.418.418 0 0 1-.094.12c-.048.047-.095.143-.166.238-.024.024-.024.048-.048.072 0 0 0 .023-.023.023a.492.492 0 0 0 .19.644.438.438 0 0 0 .165.048c.19 0 .356-.12.45-.286 0 0 0-.024.024-.024 0-.024.024-.048.048-.072.024-.095.07-.167.095-.262l.047-.143c.071-.262.19-.5.308-.74a.369.369 0 0 1 .19-.142c.024 0 .024 0 .024-.024l.094-.191a5.552 5.552 0 0 0 2.063.382c.427 0 .854-.048 1.28-.167.261-.048.522-.143.759-.215l.095.167c.023 0 .023 0 .023.024a.369.369 0 0 1 .19.143c.119.238.237.477.308.74v.023l.048.143c.023.095.047.19.095.262.023.024.023.048.047.072 0 0 0 .024.024.024.095.167.26.286.45.286.071 0 .119-.024.19-.048a.399.399 0 0 0 .213-.262.617.617 0 0 0-.024-.358c0-.024-.023-.024-.023-.024 0-.023-.024-.047-.048-.071a.857.857 0 0 0-.166-.239c-.023-.047-.047-.071-.094-.119v-.048a2.822 2.822 0 0 1-.38-.691.284.284 0 0 1 .024-.239c0-.023.024-.023.024-.023l-.071-.191a5.888 5.888 0 0 0 2.56-3.243l.19.024c.023 0 .023-.024.023-.024a.268.268 0 0 1 .19-.072h.024c.26.048.521.12.758.215h.024c.047.024.095.047.142.047.095.048.166.096.261.12.024 0 .047.024.095.024.024 0 .024 0 .047.023a.213.213 0 0 0 .119.024.516.516 0 0 0 .474-.334.561.561 0 0 0-.427-.5zm-6.851-.74-.64.31-.64-.31-.166-.691.45-.572h.711l.45.572-.165.691zm3.864-1.55c.119.501.142 1.002.095 1.503l-2.252-.644c-.214-.048-.332-.262-.285-.477a.385.385 0 0 1 .095-.167l1.778-1.622c.26.43.45.907.57 1.407zm-1.28-2.289-1.944 1.383c-.166.096-.403.072-.522-.095a.217.217 0 0 1-.07-.167l-.143-2.409A4.451 4.451 0 0 1 14.43 7.74zM10.14 6.524l.474-.095-.119 2.384c0 .215-.19.382-.403.382-.07 0-.118-.024-.19-.048L7.936 7.74a4.7 4.7 0 0 1 2.205-1.216zM7.247 8.622l1.755 1.574c.166.143.19.382.047.549-.047.071-.095.095-.19.119l-2.3.668a5.043 5.043 0 0 1 .688-2.91zm-.403 4.03 2.347-.405c.19 0 .38.12.403.31a.284.284 0 0 1-.023.239l-.901 2.193a4.687 4.687 0 0 1-1.826-2.337zm5.382 2.957a4.77 4.77 0 0 1-1.02.12c-.497 0-1.019-.096-1.493-.239l1.162-2.122a.366.366 0 0 1 .474-.096c.071.048.118.096.19.167l1.137 2.075c-.142.024-.284.048-.45.095zm2.892-2.074a4.54 4.54 0 0 1-1.422 1.43l-.925-2.241a.388.388 0 0 1 .214-.453.689.689 0 0 1 .213-.048l2.37.406c-.118.333-.26.643-.45.906z"
        stroke="url(#mzwgad1qzc)" stroke-width=".298" fill="url(#5trmhvew0d)" fill-rule="nonzero"
        transform="translate(3.5 2)" />
    </g>
  </g>
</svg>