<svg width="26" height="25" viewBox="0 0 26 25" xmlns="http://www.w3.org/2000/svg">
  <defs>
    <linearGradient x1="50%" y1="21.348%" x2="50%" y2="86.706%" id="a5pakj5udc">
      <stop stop-color="#818C96" stop-opacity="0" offset="0%" />
      <stop stop-color="#818C96" offset="100%" />
    </linearGradient>
    <linearGradient x1="50%" y1="0%" x2="50%" y2="86.637%" id="xqprawvf0b">
      <stop stop-color="#03192D" offset="0%" />
      <stop stop-color="#03192D" offset="100%" />
    </linearGradient>
    <linearGradient x1="50%" y1="0%" x2="50%" y2="86.637%" id="y137nhwbne">
      <stop stop-color="#E5E8EA" offset="0%" />
      <stop stop-color="#B3BAC0" offset="100%" />
    </linearGradient>
    <linearGradient x1="50%" y1="21.348%" x2="50%" y2="86.706%" id="8y36iw129d">
      <stop stop-color="#818C96" stop-opacity="0" offset="0%" />
      <stop stop-color="#818C96" offset="100%" />
    </linearGradient>
    <filter x="-18.3%" y="-13.5%" width="136.6%" height="137.8%" filterUnits="objectBoundingBox" id="nnn3ohrqia">
      <feOffset dy="1" in="SourceAlpha" result="shadowOffsetOuter1" />
      <feGaussianBlur stdDeviation="1" in="shadowOffsetOuter1" result="shadowBlurOuter1" />
      <feColorMatrix values="0 0 0 0 0.00784313725 0 0 0 0 0.0784313725 0 0 0 0 0.141176471 0 0 0 0.6 0"
        in="shadowBlurOuter1" result="shadowMatrixOuter1" />
      <feMerge>
        <feMergeNode in="shadowMatrixOuter1" />
        <feMergeNode in="SourceGraphic" />
      </feMerge>
    </filter>
  </defs>
  <g fill="none">
    <path d="M2 0h20v20H2z" />
    <g fill-rule="nonzero">
      <g filter="url(#nnn3ohrqia)" fill="url(#xqprawvf0b)" stroke="url(#a5pakj5udc)" stroke-width=".438"
        transform="translate(2.5 3)">
        <path
          d="M9.05.354c.242-.118.49-.19.751-.082.169.072.336.15.5.232.503.249 1.01.49 1.516.731l.77.368c.67.323 1.183.57 1.685.805-.112.555-.291.861-.474 1.165.048 1.464.198 2.339.347 3.207a16.765 16.765 0 0 0 2.134 2.063c.975.338 1.4.374 1.774.378.501 1.044.657 1.723.813 2.409-1.164 1.745-2.23 3.073-3.3 4.399-.554.69-1.108 1.383-1.66 2.076l-8.335.171c-.92-.784-1.376-1.352-1.832-1.92-.206-.255-.413-.512-.619-.77-.337-.418-.672-.837-1.007-1.255a497.38 497.38 0 0 0-1.43-1.781l-.343-.428a8.361 8.361 0 0 1 .254-2.359l.308-1.286c.05-.216.1-.432.148-.648.139-.638.286-1.274.433-1.91.141-.608.282-1.217.416-1.826.05-.227.142-.408.374-.496.26-.099.51-.224.755-.348 1.052-.51 1.795-.866 2.538-1.223.424-.204.848-.406 1.272-.608.739-.352 1.477-.704 2.213-1.064z" />
      </g>
      <path
        d="M11.31.26c1.124.306 1.976.61 2.817.912.72.985 1.183 1.776 1.64 2.562-.108 1.157-.264 2.052-.42 2.943-.859.859-1.56 1.448-2.256 2.031-.666.085-1.132.085-1.6.08-.441-.003-.899 0-1.351.003-.501-.235-.666-.373-.83-.511A73.831 73.831 0 0 0 7.82 7.047a.748.748 0 0 1-.287-.509 116.46 116.46 0 0 0-.444-2.53c.273-.65.483-1.01.69-1.37.372-.636.558-.955.729-1.255 1.08-.497 1.943-.811 2.8-1.123z"
        stroke="url(#8y36iw129d)" stroke-width=".438" fill="url(#y137nhwbne)" transform="translate(9.445 3.065)" />
      <path
        d="M15.172 9.578c-.77.984-1.51 1.94-2.264 2.892-.074.096-.085.157-.019.266.78 1.265 1.555 2.532 2.326 3.802.024.038.043.08.074.14h-.213c-.506 0-1.013-.003-1.52 0a.227.227 0 0 1-.23-.135c-.529-.936-1.06-1.87-1.594-2.803a1.538 1.538 0 0 0-.074-.12l-.579.704c-.041.05-.024.109-.024.165 0 .68-.004 1.36 0 2.04 0 .112-.022.152-.145.148a42.3 42.3 0 0 0-1.332 0c-.102 0-.133-.028-.133-.13.003-2.286.003-4.571 0-6.856 0-.1.032-.12.125-.12.45.005.898.007 1.347 0 .113 0 .136.033.136.14-.004.986 0 1.973 0 2.969.07-.01.074-.069.101-.108.618-1 1.316-1.945 1.97-2.92a.138.138 0 0 1 .123-.079c.632.006 1.262.005 1.925.005z"
        fill="#FEFEFE" />
      <path
        d="M19.641 7.603c0-.426.004-.851 0-1.278 0-.104.023-.154.137-.141.074.008.149.008.222 0 .181-.018.303.032.338.232.02.123.082.029.114 0a1.12 1.12 0 0 1 .777-.277c.533.02.9.357.92.891.023.623.007 1.246.01 1.87 0 .07-.021.105-.098.105h-.563c-.107 0-.097-.067-.097-.135V7.203c0-.288-.123-.448-.37-.477-.228-.027-.416.074-.579.22-.053.05-.036.117-.036.178 0 .571-.005 1.143 0 1.714 0 .127-.033.177-.166.168a3.85 3.85 0 0 0-.47 0c-.113.006-.14-.038-.138-.147.003-.418 0-.839 0-1.256z"
        fill="#050A22" />
    </g>
  </g>
</svg>